# xmcd
# Copyright (C) 1995-1998 Ti Kan
#
# Track frame offsets:
#       150
#       13900
#       26656
#       42928
#       52068
#       64301
#       80746
#       93837
#       107019
#       118844
#       129854
#       143694
#
# Disc length: 2060 seconds
#
# Revision: 0
# Processed by: cddbd v1.5.2PL0 Copyright (c) Steve Scherf et al.
# Submitted via: CD-Import v1.0
#
DISCID=a4080a0c
DTITLE=Mark and The Spies - Give Me A Look
DYEAR=2009
DGENRE=
TTITLE0=Gimme Your Love
TTITLE1=Ain't Got No Time
TTITLE2=You Got It
TTITLE3=We Fell In Love
TTITLE4=Hers To Keep
TTITLE5=Please Think It Over
TTITLE6=Give Me A Look
TTITLE7=Won't Work On Me
TTITLE8=It Don't Matter To You
TTITLE9=I Want More
TTITLE10=It's True (I Need You)
TTITLE11=Give Me A Look (Reprise)
EXTD=
EXTT0=
EXTT1=
EXTT2=
EXTT3=
EXTT4=
EXTT5=
EXTT6=
EXTT7=
EXTT8=
EXTT9=
EXTT10=
EXTT11=
PLAYORDER=
